<svg width="48" height="48" viewBox="0 0 48 48" fill="none" xmlns="http://www.w3.org/2000/svg">
<path d="M46 23C46 20.7909 44.2091 19 42 19H31C28.7909 19 27 20.7909 27 23V34C27 36.2091 28.7909 38 31 38H39.8106H42C44.2091 38 46 36.2091 46 34V23Z" fill="black"/>
<path d="M45 23C45 20.7909 43.2091 19 41 19H31C28.7909 19 27 20.7909 27 23V34.2857C27 36.4949 28.7909 38.2857 31 38.2857H39.1364L39.932 40.0195C40.2887 40.7968 41.3931 40.7968 41.7498 40.0195L42.5455 38.2857V38.2857C43.9011 38.2857 45 37.1868 45 35.8312V23Z" fill="white"/>
<path d="M2 11C2 8.79086 3.79086 7 6 7H31C33.2091 7 35 8.79086 35 11V27C35 29.2091 33.2091 31 31 31H12.75H6C3.79086 31 2 29.2091 2 27V11Z" fill="black"/>
<path d="M1 11C1 8.79086 2.79086 7 5 7H30C32.2091 7 34 8.79086 34 11V27C34 29.2091 32.2091 31 30 31H11.75L9.41302 33.9913C9.01265 34.5038 8.23735 34.5038 7.83698 33.9913L5.5 31H5C2.79086 31 1 29.2091 1 27V11Z" fill="white"/>
<rect x="5" y="25" width="24" height="2" fill="black"/>
<rect x="30" y="33" width="12" height="2" fill="black"/>
</svg>
