<svg width="48" height="48" viewBox="0 0 48 48" fill="none" xmlns="http://www.w3.org/2000/svg">
<g clip-path="url(#clip0_4_10)">
<path d="M51 5.5C51 3.567 49.433 2 47.5 2H34.5C32.567 2 31 3.567 31 5.5V5.5C31 7.433 32.567 9 34.5 9H44.1229H47.5C49.433 9 51 7.433 51 5.5V5.5Z" fill="#E11E40"/>
<path d="M50 5.5C50 3.567 48.433 2 46.5 2H33.5C31.567 2 30 3.567 30 5.5V5.5C30 7.43299 31.567 9 33.5 9H43.4848L44.4436 11.5312C44.7698 12.3922 45.9878 12.3922 46.3139 11.5312L47.2727 9V9C48.779 9 50 7.77896 50 6.27273V5.5Z" fill="#EA6279"/>
<path d="M46 23C46 20.7909 44.2091 19 42 19H31C28.7909 19 27 20.7909 27 23V34C27 36.2091 28.7909 38 31 38H39.8106H42C44.2091 38 46 36.2091 46 34V23Z" fill="#25E619"/>
<path d="M45 23C45 20.7909 43.2091 19 41 19H31C28.7909 19 27 20.7909 27 23V34.2857C27 36.4949 28.7909 38.2857 31 38.2857H39.1364L39.932 40.0195C40.2887 40.7968 41.3931 40.7968 41.7498 40.0195L42.5455 38.2857V38.2857C43.9011 38.2857 45 37.1868 45 35.8312V23Z" fill="#67ED5E"/>
<path d="M-2 38.5C-2 36.567 -0.432997 35 1.5 35H14.5C16.433 35 18 36.567 18 38.5V38.5C18 40.433 16.433 42 14.5 42H4.87711H1.5C-0.432997 42 -2 40.433 -2 38.5V38.5Z" fill="#2573DA"/>
<path d="M-3 38.5C-3 36.567 -1.433 35 0.5 35H13.5C15.433 35 17 36.567 17 38.5V38.5C17 40.433 15.433 42 13.5 42H3.51515L2.55637 44.5312C2.23022 45.3922 1.0122 45.3922 0.686053 44.5312L-0.272727 42V42C-1.77896 42 -3 40.779 -3 39.2727V38.5Z" fill="#679DE5"/>
<path d="M31.86 35.075C31.67 35.075 31.51 35.01 31.38 34.88C31.25 34.75 31.185 34.59 31.185 34.4V24.665C31.185 24.475 31.25 24.315 31.38 24.185C31.51 24.045 31.67 23.975 31.86 23.975C32.05 23.975 32.21 24.045 32.34 24.185C32.48 24.315 32.55 24.475 32.55 24.665V28.58C32.93 28.16 33.34 27.825 33.78 27.575C34.22 27.325 34.74 27.2 35.34 27.2C35.89 27.2 36.365 27.33 36.765 27.59C37.175 27.85 37.485 28.205 37.695 28.655C37.915 29.105 38.025 29.6 38.025 30.14V34.4C38.025 34.59 37.955 34.75 37.815 34.88C37.685 35.01 37.525 35.075 37.335 35.075C37.145 35.075 36.985 35.01 36.855 34.88C36.725 34.75 36.66 34.59 36.66 34.4V30.29C36.66 29.07 36.11 28.46 35.01 28.46C34.51 28.46 34.06 28.59 33.66 28.85C33.27 29.11 32.9 29.46 32.55 29.9V34.4C32.55 34.59 32.48 34.75 32.34 34.88C32.21 35.01 32.05 35.075 31.86 35.075ZM40.9706 25.79C40.7606 25.79 40.5806 25.715 40.4306 25.565C40.2806 25.415 40.2056 25.235 40.2056 25.025V24.965C40.2056 24.755 40.2806 24.575 40.4306 24.425C40.5806 24.275 40.7606 24.2 40.9706 24.2H41.0606C41.2706 24.2 41.4506 24.275 41.6006 24.425C41.7506 24.575 41.8256 24.755 41.8256 24.965V25.025C41.8256 25.235 41.7506 25.415 41.6006 25.565C41.4506 25.715 41.2706 25.79 41.0606 25.79H40.9706ZM41.0006 35.075C40.8106 35.075 40.6506 35.01 40.5206 34.88C40.3906 34.75 40.3256 34.59 40.3256 34.4V27.965C40.3256 27.775 40.3906 27.615 40.5206 27.485C40.6506 27.345 40.8106 27.275 41.0006 27.275C41.2006 27.275 41.3656 27.34 41.4956 27.47C41.6256 27.6 41.6906 27.765 41.6906 27.965V34.4C41.6906 34.59 41.6206 34.75 41.4806 34.88C41.3506 35.01 41.1906 35.075 41.0006 35.075Z" fill="white" fill-opacity="0.82"/>
<path d="M2 11C2 8.79086 3.79086 7 6 7H31C33.2091 7 35 8.79086 35 11V27C35 29.2091 33.2091 31 31 31H12.75H6C3.79086 31 2 29.2091 2 27V11Z" fill="#EDB912"/>
<path d="M1 11C1 8.79086 2.79086 7 5 7H30C32.2091 7 34 8.79086 34 11V27C34 29.2091 32.2091 31 30 31H11.75L9.41302 33.9913C9.01265 34.5038 8.23735 34.5038 7.83698 33.9913L5.5 31H5C2.79086 31 1 29.2091 1 27V11Z" fill="#F2CE59"/>
<path d="M12.648 16.392L13.332 15.852C12.888 15.384 11.976 14.628 11.58 14.316L10.896 14.808C11.4 15.192 12.192 15.924 12.648 16.392ZM8.832 15.348L7.86 15.744C8.052 15.984 8.292 16.368 8.436 16.608C8.844 17.292 9.384 18.456 9.948 19.716C10.632 21.288 11.208 23.208 11.58 24.636L12.612 24.36C12.204 23.028 11.436 20.808 10.788 19.308C10.296 18.216 9.72 17.004 9.252 16.164C9.132 15.936 8.928 15.552 8.832 15.348ZM6.708 18.852L7.176 19.836C8.688 19.176 12.24 17.1 14.244 17.1C15.42 17.1 15.984 17.76 15.984 18.468C15.984 19.32 15.444 20.052 14.124 20.052C13.488 20.052 12.888 19.872 12.42 19.656L12.396 20.604C12.84 20.772 13.524 20.94 14.196 20.94C16.068 20.94 16.944 19.896 16.944 18.504C16.944 17.196 15.936 16.26 14.268 16.26C12.276 16.26 9.36 17.892 7.692 18.528C7.476 18.624 7.056 18.768 6.708 18.852ZM23.652 14.508L22.656 14.472C22.656 14.628 22.644 14.844 22.62 15.06C22.512 16.092 22.272 18.036 22.272 19.68C22.272 21.204 22.596 22.908 22.944 23.976L23.82 23.712C23.448 22.584 23.112 21.144 23.112 19.584C23.112 17.94 23.316 16.044 23.52 15.036C23.556 14.868 23.604 14.652 23.652 14.508ZM21.72 15.984C21.204 15.984 20.16 15.912 19.74 15.84L19.764 16.74C20.256 16.764 21.192 16.812 21.708 16.812C23.496 16.812 25.86 16.632 27.588 16.332L27.576 15.444C25.92 15.816 23.832 15.984 21.72 15.984ZM26.724 17.4L25.764 17.16C25.752 17.352 25.692 17.676 25.644 17.856C25.092 19.8 24.108 21.096 23.04 22.032C22.272 22.704 21.492 23.04 20.892 23.04C20.448 23.04 20.208 22.8 20.208 22.308C20.208 21.204 21.288 19.884 22.644 19.284C23.256 19.008 24.144 18.72 25.152 18.72C26.94 18.72 27.924 19.74 27.924 20.904C27.924 22.452 26.58 23.568 24.42 23.808L24.936 24.612C27.72 24.168 28.86 22.668 28.86 20.952C28.86 19.272 27.432 17.952 25.164 17.952C24.384 17.952 23.412 18.132 22.608 18.444C20.832 19.128 19.308 20.82 19.308 22.464C19.308 23.484 19.932 23.964 20.724 23.964C21.576 23.964 22.536 23.52 23.304 22.932C24.564 21.96 25.764 20.292 26.472 18.072C26.544 17.88 26.652 17.556 26.724 17.4Z" fill="white" fill-opacity="0.82"/>
</g>
<defs>
<clipPath id="clip0_4_10">
<rect width="48" height="48" fill="white"/>
</clipPath>
</defs>
</svg>
